<svg xmlns="http://www.w3.org/2000/svg" width="326.664" height="466.664" viewBox="0 0 326.664 466.664"><g transform="translate(-186.666 -46.668)"><path d="M326.67,46.668h46.668c38.66,0,70,38.66,70,70V280a70,70,0,0,1-70,70H326.67c-38.66,0-70-38.66-70-70V116.668a70,70,0,0,1,70-70Z" fill="#969696"/><path d="M513.33,280a23.332,23.332,0,1,0-46.664,0,93.338,93.338,0,0,1-93.336,93.332H326.666A93.338,93.338,0,0,1,233.33,280a23.332,23.332,0,1,0-46.664,0,140.164,140.164,0,0,0,140,140v46.668H303.33a23.332,23.332,0,1,0,0,46.664h93.336a23.332,23.332,0,1,0,0-46.664H373.33V420a140.164,140.164,0,0,0,140-140Z" fill="#969696"/></g></svg>